<svg width="168" height="38" viewBox="0 0 168 38" fill="none" xmlns="http://www.w3.org/2000/svg">
<g clip-path="url(#clip0_3506_264)">
<path d="M66.6074 14V0.729126H70.3535C71.508 0.729126 72.5289 0.98433 73.416 1.49475C74.3032 2.00516 74.9868 2.7313 75.4668 3.67314C75.9529 4.61497 76.199 5.69658 76.2051 6.91793V7.76559C76.2051 9.01736 75.962 10.1141 75.4759 11.0559C74.9959 11.9978 74.3062 12.7209 73.4069 13.2252C72.5137 13.7295 71.4716 13.9878 70.2806 14H66.6074ZM68.3574 2.16923V12.569H70.1986C71.5475 12.569 72.5957 12.1497 73.3431 11.3112C74.0966 10.4726 74.4733 9.27861 74.4733 7.72913V6.95439C74.4733 5.44744 74.1178 4.27774 73.4069 3.44527C72.702 2.60673 71.6994 2.18138 70.3991 2.16923H68.3574ZM83.7246 8.6315H80.6074V14H78.8483V0.729126H83.2416C84.7363 0.729126 85.8848 1.0694 86.6869 1.74996C87.495 2.43051 87.8991 3.42097 87.8991 4.72131C87.8991 5.5477 87.6743 6.26775 87.2246 6.88147C86.7811 7.49519 86.1613 7.95398 85.3652 8.25778L88.4824 13.8906V14H86.6048L83.7246 8.6315ZM80.6074 7.20048H83.2962C84.1652 7.20048 84.8548 6.97565 85.3652 6.526C85.8817 6.07635 86.14 5.47478 86.14 4.72131C86.14 3.901 85.8939 3.27209 85.4017 2.83459C84.9156 2.39709 84.2108 2.17531 83.2871 2.16923H80.6074V7.20048ZM97.8613 7.86586H92.11V12.569H98.791V14H90.36V0.729126H98.6999V2.16923H92.11V6.43486H97.8613V7.86586ZM108.298 10.5364H102.738L101.489 14H99.6843L104.752 0.729126H106.283L111.36 14H109.564L108.298 10.5364ZM103.266 9.0963H107.778L105.518 2.88928L103.266 9.0963ZM115.407 0.729126L119.745 11.5573L124.084 0.729126H126.354V14H124.604V8.83202L124.768 3.25386L120.411 14H119.071L114.723 3.28121L114.896 8.83202V14H113.146V0.729126H115.407ZM132.816 7.82938L131.193 9.5156V14H129.443V0.729126H131.193V7.29163L137.09 0.729126H139.205L133.982 6.58981L139.615 14H137.519L132.816 7.82938ZM148.475 10.5364H142.915L141.666 14H139.861L144.929 0.729126H146.46L151.537 14H149.742L148.475 10.5364ZM143.443 9.0963H147.955L145.695 2.88928L143.443 9.0963ZM155.584 0.729126L159.923 11.5573L164.261 0.729126H166.531V14H164.781V8.83202L164.945 3.25386L160.588 14H159.248L154.901 3.28121L155.073 8.83202V14H153.323V0.729126H155.584Z" fill="#275553"/>
<path d="M77.0404 24.178H72.7748V36.0087H71.0339V24.178H66.7773V22.7379H77.0404V24.178ZM88.9623 29.8016C88.9623 31.102 88.7435 32.2383 88.306 33.2105C87.8685 34.1766 87.2488 34.915 86.4466 35.4254C85.6446 35.9357 84.7088 36.191 83.6393 36.191C82.5942 36.191 81.6676 35.9357 80.8594 35.4254C80.0513 34.9088 79.4224 34.1766 78.9727 33.2288C78.5291 32.2747 78.3013 31.1718 78.2891 29.9202V28.9631C78.2891 27.6871 78.5109 26.5599 78.9545 25.5816C79.398 24.6033 80.0239 23.8559 80.8321 23.3394C81.6463 22.8169 82.576 22.5555 83.6211 22.5555C84.6845 22.5555 85.6203 22.8138 86.4284 23.3303C87.2426 23.8407 87.8685 24.5851 88.306 25.5634C88.7435 26.5356 88.9623 27.6688 88.9623 28.9631V29.8016ZM87.2214 28.9449C87.2214 27.3711 86.9054 26.165 86.2735 25.3264C85.6415 24.4818 84.7574 24.0595 83.6211 24.0595C82.5152 24.0595 81.6432 24.4818 81.0052 25.3264C80.3733 26.165 80.0482 27.3316 80.03 28.8264V29.8016C80.03 31.3269 80.349 32.5269 80.987 33.4019C81.6311 34.2708 82.5152 34.7053 83.6393 34.7053C84.7696 34.7053 85.6446 34.2952 86.2643 33.4748C86.8841 32.6485 87.2032 31.4666 87.2214 29.9293V28.9449ZM100.93 22.7379V31.7613C100.924 33.013 100.529 34.0369 99.7449 34.8329C98.9671 35.6289 97.9098 36.0755 96.5729 36.1727L96.1081 36.191C94.6559 36.191 93.4983 35.7991 92.6354 35.0152C91.7726 34.2313 91.3351 33.1528 91.3229 31.7795V22.7379H93.0547V31.7248C93.0547 32.6849 93.319 33.4323 93.8477 33.967C94.3763 34.4957 95.1298 34.76 96.1081 34.76C97.0985 34.76 97.8551 34.4957 98.3776 33.967C98.9062 33.4384 99.1706 32.694 99.1706 31.7339V22.7379H100.93ZM108.559 30.6402H105.441V36.0087H103.682V22.7379H108.076C109.57 22.7379 110.719 23.0781 111.521 23.7587C112.329 24.4392 112.733 25.4297 112.733 26.73C112.733 27.5564 112.508 28.2765 112.059 28.8902C111.615 29.5039 110.995 29.9627 110.199 30.2665L113.316 35.8993V36.0087H111.439L108.559 30.6402ZM105.441 29.2092H108.13C108.999 29.2092 109.689 28.9844 110.199 28.5347C110.716 28.0851 110.974 27.4835 110.974 26.73C110.974 25.9097 110.728 25.2808 110.236 24.8433C109.75 24.4058 109.045 24.1841 108.121 24.178H105.441V29.2092Z" fill="#F47648"/>
</g>
<g clip-path="url(#clip1_3506_264)">
<path fill-rule="evenodd" clip-rule="evenodd" d="M0.607422 31.8498V2.02042C0.607422 0.904576 1.51337 0 2.63091 0H17.5682C19.0724 0 20.0508 1.5806 19.3781 2.92399L4.44077 32.7534C3.48586 34.6603 0.607422 33.9818 0.607422 31.8498ZM50.3852 31.8498V2.02042C50.3852 0.904576 49.4791 0 48.3617 0H33.4244C31.9202 0 30.9418 1.5806 31.6145 2.92399L46.5519 32.7534C47.5066 34.6603 50.3852 33.9818 50.3852 31.8498ZM26.5081 35.1554V5.32596C26.5081 3.19398 29.3865 2.51549 30.3414 4.42243L45.2787 34.2518C45.9513 35.5952 44.9732 37.1758 43.4689 37.1758H28.5315C27.414 37.1758 26.5081 36.2712 26.5081 35.1554ZM24.4846 5.32596V35.1554C24.4846 36.2712 23.5786 37.1758 22.4611 37.1758H7.52378C6.01956 37.1758 5.04121 35.5952 5.71389 34.2518L20.6512 4.42243C21.6061 2.51549 24.4846 3.19398 24.4846 5.32596Z" fill="url(#paint0_linear_3506_264)"/>
</g>
<defs>
<linearGradient id="paint0_linear_3506_264" x1="25.6987" y1="37.1758" x2="25.6987" y2="-4.4317e-06" gradientUnits="userSpaceOnUse">
<stop offset="0.479167" stop-color="#275553"/>
<stop offset="1" stop-color="#F47648"/>
</linearGradient>
<clipPath id="clip0_3506_264">
<rect width="101.111" height="36.5556" fill="white" transform="translate(66)"/>
</clipPath>
<clipPath id="clip1_3506_264">
<rect width="49.7778" height="37.1758" fill="white"/>
</clipPath>
</defs>
</svg>
